# xmcd CD database file
#
# Track frame offsets:
#	150
#	23405
#	51922
#	76158
#	100706
#	114732
#	134069
#	160568
#	182272
#	206884
#	234684
#	251196
#
# Disc length: 3664 seconds
#
# Revision: 0
# Processed by: cddbd v1.5.2PL0 Copyright (c) Steve Scherf et al.
# Submitted via: CDex 1.70beta2
#
DISCID=9a0e4e0c
DTITLE=Various Artist - Healing　Jazz
DYEAR=2009
DGENRE=Jazz
TTITLE0=What's new ?
TTITLE1=Wave
TTITLE2=雨に歌えば
TTITLE3=ダニー・ボーイ
TTITLE4=Fly me to the moon
TTITLE5=Dream
TTITLE6=Darn That Dream
TTITLE7=S'wonderful
TTITLE8=みじかくも美しく燃え
TTITLE9=When I Fall In Love
TTITLE10=The Very Thought Of You
TTITLE11=Smoke Gets In Your Eyes
EXTD=YEAR: 2009
EXTT0=
EXTT1=
EXTT2=
EXTT3=
EXTT4=
EXTT5=
EXTT6=
EXTT7=
EXTT8=
EXTT9=
EXTT10=
EXTT11=
PLAYORDER=
